<svg width="34" height="37" viewBox="0 0 34 37" fill="none" xmlns="http://www.w3.org/2000/svg">
<g clip-path="url(#clip0_8_1842)">
<path d="M34.0001 27.75C34.0001 28.8404 33.6021 29.886 32.8936 30.657C32.1851 31.428 31.2242 31.8611 30.2223 31.8611H22.6667V5.13892H30.2223C31.2242 5.13892 32.1851 5.57205 32.8936 6.34303C33.6021 7.11401 34.0001 8.15969 34.0001 9.25003V27.75Z" fill="#CE2B37"/>
<path d="M3.77778 5.13892C2.77585 5.13892 1.81496 5.57205 1.10649 6.34303C0.398015 7.11401 0 8.15969 0 9.25003L0 27.75C0 28.8404 0.398015 29.886 1.10649 30.657C1.81496 31.428 2.77585 31.8611 3.77778 31.8611H11.3333V5.13892H3.77778Z" fill="#009246"/>
<path d="M11.3333 5.13892H22.6666V31.8611H11.3333V5.13892Z" fill="#EEEEEE"/>
</g>
<defs>
<clipPath id="clip0_8_1842">
<rect width="34" height="37" fill="white"/>
</clipPath>
</defs>
</svg>
