<svg width="38" height="39" viewBox="0 0 38 39" fill="none" xmlns="http://www.w3.org/2000/svg">
<path d="M38 29.25C38 30.3993 37.5552 31.5015 36.7633 32.3142C35.9715 33.1268 34.8976 33.5834 33.7778 33.5834H4.22222C3.10242 33.5834 2.02848 33.1268 1.23666 32.3142C0.44484 31.5015 0 30.3993 0 29.25V9.75002C0 8.60075 0.44484 7.49855 1.23666 6.68589C2.02848 5.87323 3.10242 5.41669 4.22222 5.41669H33.7778C34.8976 5.41669 35.9715 5.87323 36.7633 6.68589C37.5552 7.49855 38 8.60075 38 9.75002V29.25Z" fill="white"/>
<path d="M22.6322 14.1754C21.2562 13.1868 19.554 12.7996 17.8999 13.0991C16.2458 13.3986 14.7753 14.3601 13.812 15.7722C13.3571 16.479 13.1889 17.34 13.3432 18.1721C13.4976 19.0042 13.9623 19.7416 14.6383 20.2274C15.3144 20.7132 16.1486 20.909 16.9632 20.7731C17.7778 20.6373 18.5086 20.1805 19 19.5C19.2386 19.1504 19.5419 18.8524 19.8927 18.6231C20.2434 18.3938 20.6348 18.2376 21.0443 18.1635C21.4539 18.0894 21.8737 18.0989 22.2797 18.1913C22.6857 18.2837 23.07 18.4573 23.4107 18.7021C23.7513 18.9469 24.0416 19.2582 24.2651 19.6182C24.4885 19.9782 24.6407 20.3799 24.7128 20.8002C24.785 21.2206 24.7759 21.6514 24.6858 22.0681C24.5958 22.4848 24.4266 22.8792 24.1881 23.2288C24.6652 22.5295 25.0034 21.7406 25.1835 20.9072C25.3635 20.0737 25.3818 19.2121 25.2373 18.3714C25.0928 17.5306 24.7884 16.7274 24.3414 16.0074C23.8944 15.2875 23.3136 14.665 22.6322 14.1754Z" fill="#C60C30"/>
<path d="M23.4101 18.7027C22.7223 18.2083 21.8712 18.0145 21.0442 18.164C20.2171 18.3136 19.4818 18.7941 19 19.5C18.5098 20.1841 17.7782 20.6442 16.9618 20.7818C16.1453 20.9195 15.3088 20.7239 14.6311 20.2368C13.9533 19.7497 13.4882 19.0097 13.3351 18.1752C13.1821 17.3407 13.3532 16.4779 13.812 15.7712C13.3209 16.4697 12.97 17.2614 12.7797 18.1003C12.5894 18.9392 12.5635 19.8085 12.7034 20.6578C12.8433 21.5071 13.1462 22.3194 13.5947 23.0474C14.0431 23.7755 14.6281 24.4048 15.3155 24.8989C16.003 25.3929 16.7793 25.7417 17.5993 25.9252C18.4193 26.1086 19.2667 26.1229 20.0921 25.9674C20.9175 25.8118 21.7046 25.4894 22.4076 25.0189C23.1106 24.5484 23.7154 23.9392 24.187 23.2267C24.4256 22.8773 24.5948 22.4832 24.6849 22.0667C24.775 21.6502 24.7842 21.2196 24.7121 20.7994C24.6399 20.3793 24.4878 19.9779 24.2644 19.6181C24.041 19.2583 23.7507 18.9472 23.4101 18.7027Z" fill="#003478"/>
<path d="M25.6859 27.703L27.721 25.2135L28.5295 25.9101L26.4944 28.3996L25.6859 27.703ZM28.3987 24.3848L30.4338 21.8964L31.2423 22.5929L29.2072 25.0814L28.3987 24.3848ZM27.303 29.0984L29.3381 26.6099L30.1466 27.3065L28.1115 29.7949L27.303 29.0984ZM30.0179 25.7769L32.0551 23.2884L32.8636 23.9861L30.8264 26.4734L30.0179 25.7769ZM28.919 30.4915L30.9563 28.0031L31.7638 28.6997L29.7276 31.1881L28.919 30.4915ZM31.6329 27.1711L33.6669 24.6794L34.4765 25.376L32.4425 27.8677L31.6329 27.1711ZM31.6371 11.8289L32.4457 11.1324L34.4829 13.6229L33.6733 14.3195L31.6371 11.8289ZM28.9222 8.50744L29.7308 7.81085L31.7659 10.3014L30.9563 10.9969L28.9222 8.50744ZM27.304 9.90277L28.1126 9.20619L32.8626 15.015L32.054 15.7116L27.304 9.90277ZM25.6869 11.2938L26.4965 10.5972L28.5306 13.0867L27.722 13.7822L25.6869 11.2938ZM28.3997 14.6142L29.2083 13.9176L31.2455 16.406L30.438 17.1026L28.3997 14.6142ZM6.75554 22.5919L7.5641 21.8953L12.313 27.7052L11.5034 28.4018L6.75554 22.5919ZM5.14054 23.985L5.94804 23.2895L7.98421 25.779L7.1746 26.4756L5.14054 23.985ZM7.85015 27.3065L8.65871 26.6099L10.6959 29.0984L9.88737 29.7949L7.85015 27.3065ZM3.52132 25.3771L4.32987 24.6805L9.07987 30.4894L8.27026 31.1859L3.52132 25.3771ZM3.52026 13.6208L8.26815 7.81194L9.07776 8.50744L4.32776 14.3174L3.52026 13.6208ZM5.13737 15.015L9.88737 9.2051L10.6959 9.90169L5.94593 15.7105L5.13737 15.015ZM6.75554 16.4071L11.5055 10.5972L12.3141 11.2938L7.5641 17.1037L6.75554 16.4071Z" fill="#292F33"/>
</svg>
