<svg xmlns="http://www.w3.org/2000/svg" version="1.1" xmlns:xlink="http://www.w3.org/1999/xlink" xmlns:svgjs="http://svgjs.dev/svgjs" width="100%" height="100%" viewBox="0 0 1000 600"><rect width="1000" height="600" x="0" y="0" fill="#191919"/><g><circle r="166.66666666666666" cx="383.6309458414713" cy="405.85315601026514" fill="#b88746" transform="matrix(0.5761317181140538,0,0,0.5761317181140538,0,66.17511629640029)"/><path d="M386.38915280751803 480.85317538421907L386.38915280751803 480.85317538421907Q364.20605375246896 480.85317538421907 348.7717811295116 472.7252409420914Q333.366851230172 464.59730649996357 325.2095740644265 448.0186676559124Q317.0816396222987 431.4400288118612 317.0816396222987 405.85317381714856L317.0816396222987 405.85317381714856Q317.0816396222987 368.0597457974354 335.47952733065284 349.4564590237568Q353.84807231538923 330.8531722500781 386.59455187284254 330.8531722500781L386.59455187284254 330.8531722500781Q405.19783864652123 330.8531722500781 419.54643049562037 336.89777331534276Q433.92436506833735 342.9130316569897 442.0522995104651 355.0609192347546Q450.18023395259286 367.2088068125195 450.18023395259286 385.5773517972559L450.18023395259286 385.5773517972559L429.90441193270016 385.5773517972559Q429.90441193270016 372.90129519437073 424.5053507870268 364.65598985777183Q419.13563236497134 356.4400272447907 409.42319084748294 352.30270321468237Q399.68140660637675 348.1947219081918 386.59455187284254 348.1947219081918L386.59455187284254 348.1947219081918Q371.39502103882745 348.1947219081918 360.39149968215634 354.09260935536753Q349.41732104910295 360.01983952616104 343.695489943634 372.37312616925055Q338.00300156178275 384.72641281234 338.00300156178275 404.18063857093455L338.00300156178275 404.18063857093455L338.00300156178275 408.6113898372208Q338.00300156178275 427.8308738068731 343.695489943634 439.978761384638Q349.41732104910295 452.12664896240295 360.303471511303 457.84848006787195Q371.16027924988515 463.54096844972315 386.59455187284254 463.54096844972315L386.59455187284254 463.54096844972315Q400.12154746064357 463.54096844972315 409.9513598726031 459.52101531408596Q419.7518295609449 455.50106217844876 425.1508907066182 447.1677286709965Q430.54995185229154 438.83439516354423 430.54995185229154 426.1583385606591L430.54995185229154 426.1583385606591L450.18023395259286 426.1583385606591Q450.18023395259286 444.93768167604446 441.8469004451406 456.9975410829561Q433.48422421407054 469.02805776624984 419.13563236497134 474.95528793704335Q404.75769779225436 480.85317538421907 386.38915280751803 480.85317538421907Z " fill="#191919" transform="matrix(0.5761317181140538,0,0,0.5761317181140538,0,66.17511629640029)"/><path d="M680.9948845531934 480.8531678157409L680.9948845531934 480.8531678157409Q665.4903499869699 480.8531678157409 654.9744773652717 474.8440977461991Q644.4586047435736 468.8350276766573 639.0447727469581 456.2783388049261Q633.6309407503426 443.7216499331948 633.6309407503426 424.73072093983154L633.6309407503426 424.73072093983154Q633.6309407503426 405.7681366166076 639.0447727469581 393.32482642543374Q644.4586047435736 380.85317156412054 655.1728900562472 374.73072281402136Q665.8871753689208 368.6082740639221 681.5901226261196 368.6082740639221L681.5901226261196 368.6082740639221Q692.6161993103261 368.6082740639221 700.6944303000404 371.4710857479963Q708.7443166196152 374.33389743207044 714.0447699356733 379.83276343910404Q719.3452232517315 385.35997411627693 721.8962435642728 393.09806906431896Q724.4472638768141 400.86450868250034 724.4472638768141 410.87017724169027L724.4472638768141 410.87017724169027L706.3066749876314 410.87017724169027Q706.3066749876314 401.48809142556604 703.75565467509 395.45067668588484Q701.2046343625486 389.44160661634305 695.6774236853757 386.4654162517115Q690.1785576783423 383.5175705572193 681.1932972441689 383.5175705572193L681.1932972441689 383.5175705572193Q672.2080368099955 383.5175705572193 665.6887626779453 387.48582437672803Q659.1411438757559 391.4824228663761 655.6830941187554 400.0425132484593Q652.225044361755 408.6309483006818 652.225044361755 422.6899046897985L652.225044361755 422.6899046897985L652.225044361755 426.9982945509794Q652.225044361755 440.26360017619436 655.569715438198 449.0221032492529Q658.9427311847805 457.80895099245083 665.4903499869699 461.89058349251695Q672.00962411902 465.97221599258313 681.3917099351443 465.97221599258313L681.3917099351443 465.97221599258313Q690.575383060293 465.97221599258313 696.187627747884 462.7125789265581Q701.799872435475 459.4245971903937 704.3508927480163 453.3021484402945Q706.9019130605576 447.1796996901953 706.9019130605576 438.6196093081121L706.9019130605576 438.6196093081121L724.4472638768141 438.6196093081121Q724.4472638768141 447.6048697422855 721.8962435642728 455.34296469032756Q719.3452232517315 463.10940430850894 714.0447699356733 468.8350276766573Q708.7443166196152 474.5323063746663 700.581051619483 477.7069094302733Q692.4177866193506 480.8531678157409 680.9948845531934 480.8531678157409ZM790.1785539299625 480.8531678157409L790.1785539299625 480.8531678157409Q773.852023929698 480.8531678157409 762.7125685649341 474.8440977461991Q751.6014578703097 468.8350276766573 745.7908004917433 456.36337281534406Q739.980143113177 443.9200626241702 739.980143113177 424.73072093983154L739.980143113177 424.73072093983154Q739.980143113177 405.3429665645174 745.7908004917433 393.0130350539009Q751.6014578703097 380.6547588731451 762.7125685649341 374.6456888036033Q773.852023929698 368.6082740639221 790.1785539299625 368.6082740639221L790.1785539299625 368.6082740639221Q806.5050839302271 368.6082740639221 817.6161946248516 374.6456888036033Q828.7556499896154 380.6547588731451 834.4529286876244 393.0130350539009Q840.1785520557727 405.3429665645174 840.1785520557727 424.73072093983154L840.1785520557727 424.73072093983154Q840.1785520557727 443.9200626241702 834.4529286876244 456.36337281534406Q828.7556499896154 468.8350276766573 817.6161946248516 474.8440977461991Q806.5050839302271 480.8531678157409 790.1785539299625 480.8531678157409ZM790.1785539299625 465.7738033016077L790.1785539299625 465.7738033016077Q800.5810478711034 465.7738033016077 807.5254920552437 461.6921708015416Q814.4699362393839 457.6105383014754 818.0413646769418 448.93706923883485Q821.6127931144997 440.26360017619436 821.6127931144997 426.9982945509794L821.6127931144997 426.9982945509794L821.6127931144997 422.491491998823Q821.6127931144997 409.02777368263264 818.0413646769418 400.4676833005495Q814.4699362393839 391.879248248327 807.5254920552437 387.79761574826085Q800.5810478711034 383.71598324819473 790.1785539299625 383.71598324819473L790.1785539299625 383.71598324819473Q779.7760599888218 383.71598324819473 772.7182371241241 387.79761574826085Q765.6887589295658 391.879248248327 762.2023645024259 400.4676833005495Q758.7443147454254 409.02777368263264 758.7443147454254 422.491491998823L758.7443147454254 422.491491998823L758.7443147454254 426.9982945509794Q758.7443147454254 440.26360017619436 762.2023645024259 448.93706923883485Q765.6887589295658 457.6105383014754 772.7182371241241 461.6921708015416Q779.7760599888218 465.7738033016077 790.1785539299625 465.7738033016077ZM906.5050801818475 480.8531678157409L906.5050801818475 480.8531678157409Q890.1785501815829 480.8531678157409 879.0390948168191 474.8440977461991Q867.9279841221945 468.8350276766573 862.1173267436282 456.36337281534406Q856.3066693650618 443.9200626241702 856.3066693650618 424.73072093983154L856.3066693650618 424.73072093983154Q856.3066693650618 405.3429665645174 862.1173267436282 393.0130350539009Q867.9279841221945 380.6547588731451 879.0390948168191 374.6456888036033Q890.1785501815829 368.6082740639221 906.5050801818475 368.6082740639221L906.5050801818475 368.6082740639221Q922.8316101821121 368.6082740639221 933.9427208767364 374.6456888036033Q945.0821762415004 380.6547588731451 950.7794549395093 393.0130350539009Q956.5050783076575 405.3429665645174 956.5050783076575 424.73072093983154L956.5050783076575 424.73072093983154Q956.5050783076575 443.9200626241702 950.7794549395093 456.36337281534406Q945.0821762415004 468.8350276766573 933.9427208767364 474.8440977461991Q922.8316101821121 480.8531678157409 906.5050801818475 480.8531678157409ZM906.5050801818475 465.7738033016077L906.5050801818475 465.7738033016077Q916.9075741229882 465.7738033016077 923.8520183071286 461.6921708015416Q930.7964624912689 457.6105383014754 934.3678909288268 448.93706923883485Q937.9393193663846 440.26360017619436 937.9393193663846 426.9982945509794L937.9393193663846 426.9982945509794L937.9393193663846 422.491491998823Q937.9393193663846 409.02777368263264 934.3678909288268 400.4676833005495Q930.7964624912689 391.879248248327 923.8520183071286 387.79761574826085Q916.9075741229882 383.71598324819473 906.5050801818475 383.71598324819473L906.5050801818475 383.71598324819473Q896.1025862407067 383.71598324819473 889.044763376009 387.79761574826085Q882.0152851814506 391.879248248327 878.5288907543109 400.4676833005495Q875.0708409973103 409.02777368263264 875.0708409973103 422.491491998823L875.0708409973103 422.491491998823L875.0708409973103 426.9982945509794Q875.0708409973103 440.26360017619436 878.5288907543109 448.93706923883485Q882.0152851814506 457.6105383014754 889.044763376009 461.6921708015416Q896.1025862407067 465.7738033016077 906.5050801818475 465.7738033016077ZM996.6978205652533 478.415526183757L978.7556443670459 478.415526183757L978.7556443670459 330.85317343831036L996.6978205652533 330.85317343831036L996.6978205652533 423.11507474188863L1042.2193608090465 371.07426036604545L1063.4495187434184 371.07426036604545L1026.7148262428232 412.7125808007479L1065.4903349934516 478.415526183757L1044.8554151320059 478.415526183757L1015.0651668155509 425.9778864259629L996.6978205652533 444.5436453672359L996.6978205652533 478.415526183757ZM1134.6513301334608 480.8531678157409L1134.6513301334608 480.8531678157409Q1123.8520108103694 480.8531678157409 1115.2635757581468 476.4880886142813Q1106.7034853760638 472.0946647426823 1101.20461936903 463.10940430850894L1101.20461936903 463.10940430850894L1099.7590411919232 463.10940430850894L1097.9166376328658 478.415526183757L1083.6309238826343 478.415526183757L1083.6309238826343 330.85317343831036L1101.601444750981 330.85317343831036L1101.601444750981 384.5379786822358L1102.820265566973 384.5379786822358Q1106.5050726850882 378.8123553140875 1111.4087006191953 375.354305557087Q1116.2839838831633 371.8962558000865 1122.4064326332625 370.2522649320043Q1128.5288813833617 368.6082740639221 1135.473325567502 368.6082740639221L1135.473325567502 368.6082740639221Q1147.916635758676 368.6082740639221 1157.3270662449395 374.53231012304593Q1166.7091520610638 380.4563461821697 1171.8962266965646 392.7012436823681Q1177.1116460022045 404.9461411825665 1177.1116460022045 423.93707017592976L1177.1116460022045 423.93707017592976Q1177.1116460022045 443.9200626241702 1172.0096053771217 456.47675149590145Q1166.9075647520392 469.0334403676327 1157.5254789359149 474.9574764267565Q1148.1433931197907 480.8531678157409 1134.6513301334608 480.8531678157409ZM1130.3712849424194 465.15022055854206L1130.3712849424194 465.15022055854206Q1139.5549580675681 465.15022055854206 1145.7907854982247 461.46541344042674Q1151.998268258742 457.80895099245083 1155.2862499949065 449.3338946207857Q1158.5458870609314 440.85883824912065 1158.5458870609314 426.9982945509794L1158.5458870609314 426.9982945509794L1158.5458870609314 422.6899046897985Q1158.5458870609314 409.2261863736081 1155.4846626858819 400.75113000194295Q1152.4234383108324 392.3044183004172 1146.1025768697577 388.3078198107691Q1139.7533707585435 384.3395659912604 1129.776046869493 384.3395659912604L1129.776046869493 384.3395659912604Q1124.0504235013445 384.3395659912604 1118.948382876262 386.181969550318Q1113.8463422511795 387.9960284392363 1109.8780884316707 392.50283099139267Q1105.8814899420227 396.98128887340965 1103.7556396815714 404.54931580061566Q1101.601444750981 412.08899805768226 1101.601444750981 423.11507474188863L1101.601444750981 423.11507474188863L1101.601444750981 426.37471180791374Q1101.601444750981 439.016434690063 1104.5492904454732 447.6048697422855Q1107.525480810105 456.16496012436863 1113.9597209317367 460.671762676525Q1120.3656163832293 465.15022055854206 1130.3712849424194 465.15022055854206ZM1243.4381741282791 480.8531678157409L1243.4381741282791 480.8531678157409Q1227.1116441280146 480.8531678157409 1216.00053343339 474.8440977461991Q1204.8610780686263 468.8350276766573 1199.05042069006 456.36337281534406Q1193.2397633114936 443.9200626241702 1193.2397633114936 424.73072093983154L1193.2397633114936 424.73072093983154Q1193.2397633114936 405.3429665645174 1199.05042069006 393.0130350539009Q1204.8610780686263 380.6547588731451 1216.00053343339 374.6456888036033Q1227.1116441280146 368.6082740639221 1243.4381741282791 368.6082740639221L1243.4381741282791 368.6082740639221Q1259.7647041285436 368.6082740639221 1270.8758148231682 374.6456888036033Q1282.015270187932 380.6547588731451 1287.712548885941 393.0130350539009Q1293.4381722540893 405.3429665645174 1293.4381722540893 424.73072093983154L1293.4381722540893 424.73072093983154Q1293.4381722540893 443.9200626241702 1287.712548885941 456.36337281534406Q1282.015270187932 468.8350276766573 1270.8758148231682 474.8440977461991Q1259.7647041285436 480.8531678157409 1243.4381741282791 480.8531678157409ZM1243.4381741282791 465.7738033016077L1243.4381741282791 465.7738033016077Q1253.8406680694197 465.7738033016077 1260.7851122535603 461.6921708015416Q1267.7295564377005 457.6105383014754 1271.3009848752586 448.93706923883485Q1274.8724133128162 440.26360017619436 1274.8724133128162 426.9982945509794L1274.8724133128162 426.9982945509794L1274.8724133128162 422.491491998823Q1274.8724133128162 409.02777368263264 1271.3009848752586 400.4676833005495Q1267.7295564377005 391.879248248327 1260.7851122535603 387.79761574826085Q1253.8406680694197 383.71598324819473 1243.4381741282791 383.71598324819473L1243.4381741282791 383.71598324819473Q1233.0356801871385 383.71598324819473 1225.9778573224407 387.79761574826085Q1218.9483791278824 391.879248248327 1215.490329370882 400.4676833005495Q1212.003934943742 409.02777368263264 1212.003934943742 422.491491998823L1212.003934943742 422.491491998823L1212.003934943742 426.9982945509794Q1212.003934943742 440.26360017619436 1215.490329370882 448.93706923883485Q1218.9483791278824 457.6105383014754 1225.9778573224407 461.6921708015416Q1233.0356801871385 465.7738033016077 1243.4381741282791 465.7738033016077ZM1359.764700380164 480.8531678157409L1359.764700380164 480.8531678157409Q1343.4381703798995 480.8531678157409 1332.327059685275 474.8440977461991Q1321.1876043205111 468.8350276766573 1315.3769469419449 456.36337281534406Q1309.5662895633786 443.9200626241702 1309.5662895633786 424.73072093983154L1309.5662895633786 424.73072093983154Q1309.5662895633786 405.3429665645174 1315.3769469419449 393.0130350539009Q1321.1876043205111 380.6547588731451 1332.327059685275 374.6456888036033Q1343.4381703798995 368.6082740639221 1359.764700380164 368.6082740639221L1359.764700380164 368.6082740639221Q1376.091230380429 368.6082740639221 1387.202341075053 374.6456888036033Q1398.3417964398168 380.6547588731451 1404.0390751378259 393.0130350539009Q1409.7646985059741 405.3429665645174 1409.7646985059741 424.73072093983154L1409.7646985059741 424.73072093983154Q1409.7646985059741 443.9200626241702 1404.0390751378259 456.36337281534406Q1398.3417964398168 468.8350276766573 1387.202341075053 474.8440977461991Q1376.091230380429 480.8531678157409 1359.764700380164 480.8531678157409ZM1359.764700380164 465.7738033016077L1359.764700380164 465.7738033016077Q1370.1671943213046 465.7738033016077 1377.1116385054452 461.6921708015416Q1384.0560826895853 457.6105383014754 1387.6275111271434 448.93706923883485Q1391.198939564701 440.26360017619436 1391.198939564701 426.9982945509794L1391.198939564701 426.9982945509794L1391.198939564701 422.491491998823Q1391.198939564701 409.02777368263264 1387.6275111271434 400.4676833005495Q1384.0560826895853 391.879248248327 1377.1116385054452 387.79761574826085Q1370.1671943213046 383.71598324819473 1359.764700380164 383.71598324819473L1359.764700380164 383.71598324819473Q1349.3622064390233 383.71598324819473 1342.3043835743256 387.79761574826085Q1335.274905379767 391.879248248327 1331.8168556227665 400.4676833005495Q1328.3304611956269 409.02777368263264 1328.3304611956269 422.491491998823L1328.3304611956269 422.491491998823L1328.3304611956269 426.9982945509794Q1328.3304611956269 440.26360017619436 1331.8168556227665 448.93706923883485Q1335.274905379767 457.6105383014754 1342.3043835743256 461.6921708015416Q1349.3622064390233 465.7738033016077 1359.764700380164 465.7738033016077ZM1449.95744076357 478.415526183757L1432.0152645653625 478.415526183757L1432.0152645653625 330.85317343831036L1449.95744076357 330.85317343831036L1449.95744076357 423.11507474188863L1495.4789810073635 371.07426036604545L1516.7091389417346 371.07426036604545L1479.9744464411397 412.7125808007479L1518.749955191768 478.415526183757L1498.143380000462 478.415526183757L1468.3247870138675 425.9778864259629L1449.95744076357 444.5436453672359L1449.95744076357 478.415526183757Z " fill="#b88746" transform="matrix(0.5761317181140538,0,0,0.5761317181140538,0,66.17511629640029)"/></g></svg>