<svg xmlns="http://www.w3.org/2000/svg" width="36" height="37" viewBox="0 0 36 37" fill="none">
  <!-- Green Background -->
  <path d="M36 27.75C36 28.8404 35.5786 29.886 34.8284 30.657C34.0783 31.428 33.0609 31.8611 32 31.8611H4C2.93913 31.8611 1.92172 31.428 1.17157 30.657C0.421427 29.886 0 28.8404 0 27.75V9.25003C0 8.15969 0.421427 7.11401 1.17157 6.34303C1.92172 5.57205 2.93913 5.13892 4 5.13892H32C33.0609 5.13892 34.0783 5.57205 34.8284 6.34303C35.5786 7.11401 36 8.15969 36 9.25003V27.75Z" fill="#138808" />
  
  <!-- White Stripe -->
  <path d="M0 12.3333H36V24.6666H0V12.3333Z" fill="white" />
  
  <!-- Saffron Stripe -->
  <path d="M9 17.4722V20.5556C9 21.3733 9.31607 22.1576 9.87868 22.7358C10.4413 23.314 11.2043 23.6389 12 23.6389C12.7956 23.6389 13.5587 23.314 14.1213 22.7358C14.6839 22.1576 15 21.3733 15 20.5556V17.4722H9Z" fill="#FF9933" />
  
  <!-- Blue Circle -->
  <circle cx="12" cy="14.9028" r="1" fill="#3F51B5" />
</svg>

