<svg width="39" height="39" viewBox="0 0 39 39" fill="none" xmlns="http://www.w3.org/2000/svg">
<g clip-path="url(#clip0_8_1811)">
<path d="M38.3988 7.58335C37.648 6.2931 36.2668 5.41669 34.6667 5.41669H19.5V7.58335H38.3988ZM0 27.0833H39V29.25H0V27.0833ZM19.5 18.4167H39V20.5833H19.5V18.4167ZM19.5 14.0834H39V16.25H19.5V14.0834ZM0 22.75H39V24.9167H0V22.75ZM4.33333 33.5833H34.6667C36.2668 33.5833 37.648 32.7069 38.3988 31.4167H0.60125C1.352 32.7069 2.73325 33.5833 4.33333 33.5833ZM19.5 9.75002H39V11.9167H19.5V9.75002Z" fill="#B22334"/>
<path d="M0.0736667 29.9856C0.0920833 30.0863 0.112667 30.1871 0.137583 30.2856C0.16575 30.3951 0.200417 30.5001 0.23725 30.6063C0.333667 30.8869 0.450667 31.1577 0.598 31.4112L0.60125 31.4166H38.3988L38.4009 31.4123C38.5463 31.1569 38.6668 30.8881 38.7606 30.6096C38.8319 30.4063 38.887 30.1976 38.9253 29.9856C38.9697 29.7472 39 29.5024 39 29.25H0C0 29.5024 0.0303333 29.7461 0.0736667 29.9856ZM0 24.9166H39V27.0833H0V24.9166ZM0 20.5833V22.75H39V20.5833H19.5H0ZM19.5 16.25H39V18.4166H19.5V16.25ZM19.5 11.9166H39V14.0833H19.5V11.9166ZM0.60125 7.58331L0.598 7.58873L0.60125 7.58331ZM0.138667 8.71431C0.16575 8.60381 0.203667 8.49873 0.238333 8.39256C0.200712 8.4984 0.167462 8.60574 0.138667 8.71431ZM19.5 9.74998H39C39 9.49756 38.9697 9.25273 38.9253 9.01331C38.8873 8.8011 38.8319 8.59238 38.7595 8.38931C38.6656 8.10961 38.5448 7.83968 38.3988 7.58331H19.5V9.74998Z" fill="#EEEEEE"/>
<path d="M19.5 5.41669H4.33333C3.18406 5.41669 2.08186 5.87323 1.2692 6.68589C0.456546 7.49855 0 8.60075 0 9.75002L0 20.5834H19.5V5.41669Z" fill="#3C3B6E"/>
<path d="M2.16772 8.36981L2.83722 8.85623L2.58156 9.64165L3.24997 9.15631L3.91947 9.64165L3.66381 8.85623L4.33331 8.36981H3.50564L3.24997 7.58331L2.99539 8.36981H2.16772ZM4.33439 10.5365L5.00389 11.0229L4.74822 11.8083L5.41664 11.323L6.08614 11.8083L5.83047 11.0229L6.49997 10.5365H5.67231L5.41664 9.74998L5.16206 10.5365H4.33439ZM8.66772 10.5365L9.33722 11.0229L9.08156 11.8083L9.74997 11.323L10.4195 11.8083L10.1638 11.0229L10.8333 10.5365H10.0056L9.74997 9.74998L9.49539 10.5365H8.66772ZM13.0011 10.5365L13.6706 11.0229L13.4149 11.8083L14.0833 11.323L14.7528 11.8083L14.4971 11.0229L15.1666 10.5365H14.339L14.0833 9.74998L13.8287 10.5365H13.0011ZM4.33439 14.8698L5.00389 15.3562L4.74822 16.1416L5.41664 15.6563L6.08614 16.1416L5.83047 15.3562L6.49997 14.8698H5.67231L5.41664 14.0833L5.16206 14.8698H4.33439ZM8.66772 14.8698L9.33722 15.3562L9.08156 16.1416L9.74997 15.6563L10.4195 16.1416L10.1638 15.3562L10.8333 14.8698H10.0056L9.74997 14.0833L9.49539 14.8698H8.66772ZM13.0011 14.8698L13.6706 15.3562L13.4149 16.1416L14.0833 15.6563L14.7528 16.1416L14.4971 15.3562L15.1666 14.8698H14.339L14.0833 14.0833L13.8287 14.8698H13.0011ZM6.50106 8.36981L7.17056 8.85623L6.91489 9.64165L7.58331 9.15631L8.25281 9.64165L7.99714 8.85623L8.66664 8.36981H7.83897L7.58331 7.58331L7.32872 8.36981H6.50106ZM10.8344 8.36981L11.5039 8.85623L11.2482 9.64165L11.9166 9.15631L12.5861 9.64165L12.3305 8.85623L13 8.36981H12.1723L11.9166 7.58331L11.6621 8.36981H10.8344ZM15.1677 8.36981L15.8372 8.85623L15.5816 9.64165L16.25 9.15631L16.9195 9.64165L16.6638 8.85623L17.3333 8.36981H16.5056L16.25 7.58331L15.9954 8.36981H15.1677ZM2.16772 12.7031L2.83722 13.1896L2.58156 13.975L3.24997 13.4896L3.91947 13.975L3.66381 13.1896L4.33331 12.7031H3.50564L3.24997 11.9166L2.99539 12.7031H2.16772ZM6.91489 13.975L7.58331 13.4896L8.25281 13.975L7.99714 13.1896L8.66664 12.7031H7.83897L7.58331 11.9166L7.32872 12.7031H6.50106L7.17056 13.1896L6.91489 13.975ZM10.8344 12.7031L11.5039 13.1896L11.2482 13.975L11.9166 13.4896L12.5861 13.975L12.3305 13.1896L13 12.7031H12.1723L11.9166 11.9166L11.6621 12.7031H10.8344ZM15.1677 12.7031L15.8372 13.1896L15.5816 13.975L16.25 13.4896L16.9195 13.975L16.6638 13.1896L17.3333 12.7031H16.5056L16.25 11.9166L15.9954 12.7031H15.1677ZM2.16772 17.0365L2.83722 17.5229L2.58156 18.3083L3.24997 17.823L3.91947 18.3083L3.66381 17.5229L4.33331 17.0365H3.50564L3.24997 16.25L2.99539 17.0365H2.16772ZM6.91489 18.3083L7.58331 17.823L8.25281 18.3083L7.99714 17.5229L8.66664 17.0365H7.83897L7.58331 16.25L7.32872 17.0365H6.50106L7.17056 17.5229L6.91489 18.3083ZM10.8344 17.0365L11.5039 17.5229L11.2482 18.3083L11.9166 17.823L12.5861 18.3083L12.3305 17.5229L13 17.0365H12.1723L11.9166 16.25L11.6621 17.0365H10.8344ZM15.1677 17.0365L15.8372 17.5229L15.5816 18.3083L16.25 17.823L16.9195 18.3083L16.6638 17.5229L17.3333 17.0365H16.5056L16.25 16.25L15.9954 17.0365H15.1677Z" fill="white"/>
</g>
<defs>
<clipPath id="clip0_8_1811">
<rect width="39" height="39" fill="white"/>
</clipPath>
</defs>
</svg>
